<?xml version="1.0" encoding="UTF-8" standalone="no"?>
<!-- Created with Inkscape (http://www.inkscape.org/) -->

<svg
   xmlns:dc="http://purl.org/dc/elements/1.1/"
   xmlns:cc="http://creativecommons.org/ns#"
   xmlns:rdf="http://www.w3.org/1999/02/22-rdf-syntax-ns#"
   xmlns:svg="http://www.w3.org/2000/svg"
   xmlns="http://www.w3.org/2000/svg"
   xmlns:sodipodi="http://sodipodi.sourceforge.net/DTD/sodipodi-0.dtd"
   xmlns:inkscape="http://www.inkscape.org/namespaces/inkscape"
   width="42.14476mm"
   height="16.602274mm"
   viewBox="0 0 149.33183 58.826955"
   id="svg2"
   version="1.1"
   inkscape:version="0.91 r13725"
   sodipodi:docname="logo.svg">
  <defs
     id="defs4" />
  <sodipodi:namedview
     id="base"
     pagecolor="#ffffff"
     bordercolor="#666666"
     borderopacity="1.0"
     inkscape:pageopacity="0.0"
     inkscape:pageshadow="2"
     inkscape:zoom="1.979899"
     inkscape:cx="108.42189"
     inkscape:cy="64.857598"
     inkscape:document-units="px"
     inkscape:current-layer="layer1"
     showgrid="false"
     fit-margin-top="0"
     fit-margin-left="0"
     fit-margin-right="0"
     fit-margin-bottom="0"
     inkscape:window-width="1366"
     inkscape:window-height="702"
     inkscape:window-x="0"
     inkscape:window-y="27"
     inkscape:window-maximized="1" />
  <metadata
     id="metadata7">
    <rdf:RDF>
      <cc:Work
         rdf:about="">
        <dc:format>image/svg+xml</dc:format>
        <dc:type
           rdf:resource="http://purl.org/dc/dcmitype/StillImage" />
        <dc:title></dc:title>
      </cc:Work>
    </rdf:RDF>
  </metadata>
  <g
     inkscape:label="Layer 1"
     inkscape:groupmode="layer"
     id="layer1"
     transform="translate(639.88959,-445.34824)">
    <g
       id="g4225">
      <path
         sodipodi:nodetypes="ssccscsccscsscsssscscccsssscscscscssscccccsssccscssssccssssssssssscssssssssssssscsssssccccscsssssccsssssscsscc"
         inkscape:connector-curvature="0"
         d="m -571.29629,491.50771 c -4.20913,4.79394 -11.77894,7.04024 -21.09338,6.25935 -7.16199,-0.60044 -7.79171,1.11114 -10.14876,-1.7436 -1.52267,-21.27337 1.37826,-19.88066 -0.72713,-34.59539 -1.80548,-6.44855 -1.66739,-6.97886 4.34151,-9.97322 6.72066,-3.34904 16.90906,-4.61213 23.37222,-1.57409 14.14582,-1.24716 13.62495,30.95578 4.25554,41.62695 z m -7.84263,-1.37497 c 4.68763,-2.22238 8.13206,-5.93503 6.83824,-10.67433 -0.0743,-0.27211 -13.05381,4.97611 -15.93143,4.42824 -3.75602,-0.71511 -0.59605,-7.42933 -0.7916,-7.80427 -0.64326,-1.23332 10.61396,-0.41041 14.71371,-2.12408 4.20767,-1.75878 4.18846,-5.8936 2.00204,-8.57472 -0.80785,-0.99064 -12.55557,4.65555 -14.25756,2.41039 0,0 -0.14745,-5.98058 2.00634,-6.83804 2.20108,-0.8763 8.26483,0.25316 10.92776,-0.64277 0.97612,-0.32841 0.62087,-2.45921 0.69629,-2.88126 0.7582,-4.24277 -7.84093,-2.38985 -12.80219,-2.38985 -9.50092,0 -12.9105,0.95604 -14.2906,6.26342 -1.26464,6.45663 -0.43885,12.5853 -0.16347,17.40186 0.48257,8.44044 2.41817,13.40629 10.96754,13.02011 4.125,-0.20311 8.66313,-0.92073 10.08473,-1.5947 z m 39.03597,2.92798 c -1.37763,1.56904 -1.04521,0.32829 -3.18913,1.48911 -4.4065,2.38588 -10.96371,6.7458 -17.22958,6.22048 -1.5657,-0.13127 -5.79784,-1.63996 -7.31763,-3.73051 -2.05676,-2.82917 -1.85579,-5.12503 -3.50314,-5.93677 -4.90122,-2.84372 1.16183,-11.97635 3.15404,-21.26937 1.54774,-7.21972 -1.8644,-15.08688 1.26125,-16.64723 4.08192,-2.0341 8.84827,1.63067 13.33984,2.97868 2.90356,0.87141 6.80103,-3.41781 9.33867,-2.22498 14.14582,-1.24716 13.51509,28.44942 4.14568,39.12059 z m -1.63884,-34.07581 c 0.31272,-1.74996 -4.68604,-1.77687 -6.60952,1.5235 -2.74,4.70136 -3.992,18.76522 -6.90696,18.76522 -5.2573,0 -1.47286,-14.99516 -2.70083,-18.87716 -0.9912,-3.13349 -7.18527,-2.45187 -7.8017,-0.0813 -5.03409,17.50606 -0.21202,28.46854 5.94458,35.28672 1.01096,0.84758 3.43092,1.45388 5.13758,-0.45083 11.15127,-7.61595 12.57201,-21.58554 12.93685,-36.16615 z m 5.27708,1.31476 c -0.75489,-2.16548 -0.52731,-3.79972 1.0145,-7.28524 3.10723,-7.02441 10.42261,-9.62109 17.21263,-6.10984 2.6446,1.36757 3.25608,1.36757 5.90068,0 6.72558,-3.47793 12.17749,-0.81533 14.25796,6.9633 1.65613,5.73389 8.64938,9.16794 7.36454,15.07684 -0.8897,3.54484 -5.05734,7.19945 -9.84633,8.63427 l -3.96994,1.18942 0.68028,8.38407 c 0.64619,7.96402 0.55264,8.55142 -1.86725,11.72405 -4.14951,5.4403 -14.13999,7.13479 -17.58587,2.98276 -0.86304,-1.03989 -2.30845,-1.29219 -4.96723,-0.86704 -4.60443,0.73628 -7.48946,-0.69349 -9.58802,-4.75165 -11.81061,2.06238 5.18108,-24.56543 1.39405,-35.94094 z m 26.16304,35.86435 c 1.26226,-1.35487 1.79095,-2.81096 1.36159,-3.75 -1.18478,-2.5912 -1.50986,-10.31983 -0.61128,-14.53276 0.8307,-3.89467 0.98832,-4.01924 6.11898,-4.83592 4.13522,-0.65822 5.49965,-1.3504 6.35275,-3.22273 1.54567,-3.39239 -0.46282,-5.4437 -5.33005,-5.4437 -4.22384,0 -4.89582,-1.27148 -2.40936,-4.55887 4.53046,-5.98981 -2.24742,-11.66191 -7.57237,-6.33696 -1.55375,1.55375 -1.95266,2.86166 -1.525,5 1.07401,5.37002 -0.26768,8.70668 -3.99573,9.93705 -5.9302,1.95714 -7.15922,7.95878 -1.62981,7.95878 l 2.80807,0 -0.59403,7.2624 c -0.32671,3.99432 -1.08806,8.1452 -1.69188,9.22418 -2.76344,4.938 4.59644,7.72263 8.71812,3.29853 z m -15.94437,-2.03511 c 0.57524,-17.45425 0.88321,-24.79604 1.1419,-27.22254 0.36961,-3.46698 -2.00338,-4.56432 -4.49096,-2.07674 -3.46415,3.46414 -5.61651,25.51953 -2.8197,28.89358 1.60332,1.93422 6.10862,2.23052 6.16876,0.4057 z m 4.25732,-34.56718 c 2.3695,-2.08242 1.94316,-7.52584 -0.62761,-8.01319 -3.28002,-0.6218 -6.30441,0.73058 -7.49947,3.35345 -1.53097,3.3601 -1.48254,4.02297 0.43393,5.93943 1.78391,1.78391 4.77296,1.2867 7.69315,-1.27969 z m -78.6616,37.65069 c -4.20913,4.79394 -11.77894,7.04024 -21.09338,6.25935 -7.16199,-0.60044 -14.3936,-3.22533 -16.75065,-6.08007 -2.24635,-2.72067 -1.72645,-7.32534 1.17205,-10.38055 3.82957,-4.03663 6.2608,-14.31343 4.70271,-19.87837 -1.80548,-6.44855 -0.77453,-8.76457 5.23437,-11.75893 6.72066,-3.34904 17.78397,-3.05728 24.24713,-0.0192 7.05002,10.57454 8.68632,27.26806 2.48777,41.85781 z m -7.84263,-1.37497 c 5.30809,-2.51654 7.3806,-9.72187 4.42585,-15.38702 -1.30345,-2.49911 -1.30273,-3.16922 0.006,-5.70034 2.49643,-4.82764 1.89775,-8.7531 -1.91678,-12.56762 -3.04762,-3.04762 -3.97364,-3.4 -8.9349,-3.4 -9.50092,0 -13.26871,2.6351 -10.6811,7.4701 1.86036,3.47612 -2.47771,21.15206 -5.71115,23.27069 -6.29941,4.12753 0.7358,8.49935 12.72715,7.90889 4.125,-0.20311 8.66313,-0.92073 10.08473,-1.5947 z m -13.08473,-6.0871 c 0,-0.56766 0.66367,-2.6205 1.47482,-4.56186 1.36248,-3.26087 1.76241,-3.506 5.25,-3.21789 3.44964,0.28498 3.77518,0.56802 3.77518,3.28234 0,2.16455 -0.67827,3.31361 -2.5,4.23526 -3.02319,1.52948 -8,1.69256 -8,0.26215 z m 5,-17.88609 c 0,-3.44625 1.17098,-5.08179 3.63837,-5.08179 3.4338,0 4.2261,2.88158 1.4176,5.15576 -2.94109,2.38155 -5.05597,2.35061 -5.05597,-0.074 z"
         style="opacity:1;fill:#f8cf00;fill-opacity:1"
         id="path4147-6" />
    </g>
  </g>
</svg>
